<svg t="1712541997257" class="icon" viewBox="0 0 1024 1024" version="1.1" xmlns="http://www.w3.org/2000/svg" p-id="8373" width="24" height="24"><path d="M768 433.408v243.968c0 108.6976-94.4128 198.656-217.6 214.4256V433.408H768zM256 677.376V433.408h217.6v458.3936C350.4128 876.032 256 786.0736 256 677.376z" fill="#E04537" p-id="8374"></path><path d="M248.5248 133.6832L343.1424 228.352c45.056-31.6928 104.1408-50.8928 168.8576-50.8928 64.7168 0 123.8016 19.2 168.8576 50.8928l94.6176-94.6176a25.6 25.6 0 0 1 36.2496 36.2496L719.36 262.144c30.5664 33.792 48.5888 75.264 48.5888 120.064H256c0-44.8512 18.0224-86.3232 48.5888-120.064L212.2752 169.984a25.6 25.6 0 0 1 36.2496-36.2496z" fill="#F2A7A0" p-id="8375"></path></svg>