<?xml version="1.0" standalone="no"?><!DOCTYPE svg PUBLIC "-//W3C//DTD SVG 1.1//EN" "http://www.w3.org/Graphics/SVG/1.1/DTD/svg11.dtd"><svg t="1717399437652" class="icon" viewBox="0 0 1024 1024" version="1.1" xmlns="http://www.w3.org/2000/svg" p-id="4420" xmlns:xlink="http://www.w3.org/1999/xlink" width="24" height="24"><path d="M828.788603 828.807566c-174.95854 174.95854-458.609136 174.95854-633.567676 0-165.572353-165.572353-175.374214-430.383528-24.189547-607.393621a32.009481 32.009481 0 0 1 48.674088 41.567403c-129.5428 151.667386-121.135458 378.665633 20.770293 520.571384 149.964463 149.964463 393.093545 149.964463 543.058008 0s149.964463-393.093545 0-543.058008c-64.174707-64.174707-146.853612-102.550806-233.984253-110.783834l-5.457398-0.469309-0.053635 6.489878-0.026818 9.01074a32.009481 32.009481 0 0 1-64.013801 0l0.067045-13.878149 0.201132-15.13858 0.174315-6.12784 0.22795-5.511033 0.308404-4.867408c0.12068-1.488381 0.254768-2.856083 0.402265-4.076288a44.923259 44.923259 0 0 1 1.421337-7.240773l0.737486-2.319729 0.563171-1.367702 2.480636-4.840591 1.595652-2.507453c2.748812-4.116514 4.572414-5.832845 10.820933-8.112348l3.861746-1.314067 4.947862-1.542016 6.208293-1.863829C630.887537 64.034393 743.870421 110.321708 828.802011 195.253299c174.95854 174.95854 174.95854 458.609136 0 633.567675z" fill="#279CFF" fill-opacity=".5" p-id="4421"></path><path d="M512 208.004741c167.898074 0 303.995259 136.097185 303.995259 303.995259S679.898074 815.995259 512 815.995259 208.004741 679.898074 208.004741 512 344.101926 208.004741 512 208.004741z m-139.529481 173.871407a18.962963 18.962963 0 0 0 0 23.400296l120.111407 153.182815a42.533926 42.533926 0 1 0 59.71437-59.733333l-153.201777-120.073482a18.962963 18.962963 0 0 0-26.624 3.223704z" fill="#279CFF" p-id="4422"></path></svg>