<?xml version="1.0" standalone="no"?><!DOCTYPE svg PUBLIC "-//W3C//DTD SVG 1.1//EN" "http://www.w3.org/Graphics/SVG/1.1/DTD/svg11.dtd"><svg t="1777732227549" class="icon" viewBox="0 0 1024 1024" version="1.1" xmlns="http://www.w3.org/2000/svg" p-id="5896" xmlns:xlink="http://www.w3.org/1999/xlink" width="200" height="200"><path d="M504.3712 514.7136m-450.816 0a450.816 450.816 0 1 0 901.632 0 450.816 450.816 0 1 0-901.632 0Z" fill="#FF5C64" p-id="5897"></path><path d="M617.6256 854.784H399.9232c-16.9472 0-30.72-13.7728-30.72-30.72s13.7728-30.72 30.72-30.72h217.7024c16.9472 0 30.72 13.7728 30.72 30.72s-13.7728 30.72-30.72 30.72zM514.304 172.8c-144.3328-4.7104-266.9568 113.8688-266.9568 258.304 0 92.6208 48.7424 173.7728 121.9072 219.392v58.8288c0 24.6784 20.0192 44.6464 44.6464 44.6464h188.1088c24.6784 0 44.6464-20.0192 44.6464-44.6464V647.68c70.7584-46.1312 117.5552-125.9008 117.5552-216.6272 0.0512-139.8272-111.104-253.7472-249.9072-258.2528zM437.1968 345.1392c-0.8192 0.8192-40.96 39.6288-43.1616 97.3824-0.6656 17.92-15.4624 32-33.2288 32h-1.28a33.33632 33.33632 0 0 1-32-34.56c3.328-86.3232 61.9008-141.312 64.4096-143.616a33.32608 33.32608 0 0 1 47.0528 1.8944 33.2288 33.2288 0 0 1-1.792 46.8992z" fill="#FFFFFF" p-id="5898"></path></svg>