<?xml version="1.0" standalone="no"?><!DOCTYPE svg PUBLIC "-//W3C//DTD SVG 1.1//EN" "http://www.w3.org/Graphics/SVG/1.1/DTD/svg11.dtd"><svg t="1711210417669" class="icon" viewBox="0 0 1024 1024" version="1.1" xmlns="http://www.w3.org/2000/svg" p-id="13493" xmlns:xlink="http://www.w3.org/1999/xlink" width="12" height="12"><path d="M166.88097 526.894545l228.755394-234.278787a158.130424 158.130424 0 0 1 226.272969 0l2.482425 2.544484a162.164364 162.164364 0 0 1 0 226.614303l-228.755394 234.278788a158.130424 158.130424 0 0 1-226.27297 0l-2.482424-2.575515a162.164364 162.164364 0 0 1 0-226.614303z" fill="#12D2AC" p-id="13494"></path><path d="M622.095515 292.615758l226.27297 231.703272a165.825939 165.825939 0 0 1 0 231.703273 158.130424 158.130424 0 0 1-226.27297 0l-226.27297-231.703273a165.825939 165.825939 0 0 1 0-231.703272 158.130424 158.130424 0 0 1 226.27297 0z" fill="#307AF2" p-id="13495"></path><path d="M624.733091 295.439515l110.250667 112.888243-226.27297 231.703272-226.27297-231.703272 110.250667-112.888243a162.164364 162.164364 0 0 1 232.044606 0z" fill="#0057FE" p-id="13496"></path></svg>